<?xml version="1.0" encoding="UTF-8" standalone="no"?>
<!DOCTYPE svg PUBLIC "-//W3C//DTD SVG 1.1//EN" "http://www.w3.org/Graphics/SVG/1.1/DTD/svg11.dtd">
<svg xmlns="http://www.w3.org/2000/svg" version="1.1" viewBox="0.00 0.00 222.00 56.00">
<path fill="#151515" d="
  M 30.14 28.49
  A 0.44 0.44 0.0 0 0 30.91 28.48
  L 41.52 9.53
  Q 41.80 9.04 42.36 9.03
  L 47.86 8.99
  A 0.88 0.87 -0.3 0 1 48.75 9.86
  L 48.75 44.83
  A 1.10 1.10 0.0 0 1 47.66 45.93
  L 42.49 45.97
  A 1.48 1.48 0.0 0 1 41.00 44.49
  L 41.00 26.74
  A 0.56 0.55 59.3 0 0 39.96 26.47
  C 38.48 29.21 34.59 37.81 31.88 38.93
  C 29.25 40.02 27.50 38.23 26.26 35.94
  Q 23.49 30.76 20.31 26.00
  A 0.38 0.37 27.8 0 0 19.62 26.21
  L 19.81 45.06
  A 0.62 0.62 0.0 0 1 19.20 45.68
  L 13.68 45.78
  A 1.41 1.41 0.0 0 1 12.25 44.37
  L 12.25 9.80
  Q 12.25 9.35 12.70 9.31
  L 17.43 8.96
  A 2.43 2.42 -17.0 0 1 19.73 10.18
  L 30.14 28.49
  Z"
/>
<path fill="#151515" d="
  M 54.27 45.80
  A 0.58 0.57 2.8 0 1 53.75 45.23
  L 53.73 9.54
  Q 53.72 9.03 54.23 9.02
  Q 58.87 8.95 66.99 9.03
  C 76.54 9.12 82.60 17.06 76.02 25.57
  A 0.60 0.60 0.0 0 0 76.09 26.39
  Q 83.10 32.74 78.46 41.20
  C 75.18 47.18 59.92 46.32 54.27 45.80
  Z
  M 60.99 16.99
  L 61.01 22.31
  A 0.96 0.96 0.0 0 0 61.97 23.26
  L 67.49 23.25
  A 3.74 3.42 -0.2 0 0 71.22 19.81
  L 71.22 19.41
  A 3.74 3.42 -0.2 0 0 67.47 16.01
  L 61.95 16.02
  A 0.96 0.96 0.0 0 0 60.99 16.99
  Z
  M 60.98 31.55
  L 61.00 37.55
  A 1.28 1.28 0.0 0 0 62.28 38.83
  L 67.37 38.81
  A 5.39 3.77 -0.2 0 0 72.75 35.02
  L 72.75 34.00
  A 5.39 3.77 -0.2 0 0 67.35 30.25
  L 62.26 30.27
  A 1.28 1.28 0.0 0 0 60.98 31.55
  Z"
/>
<path fill="#151515" d="
  M 105.72 38.78
  L 121.40 38.74
  A 0.43 0.43 0.0 0 1 121.75 39.43
  L 117.43 45.23
  A 1.30 1.30 0.0 0 1 116.39 45.75
  L 95.68 45.75
  Q 95.01 45.75 95.00 45.08
  C 94.97 42.80 94.98 40.76 96.32 38.74
  Q 103.71 27.62 111.04 16.75
  A 0.58 0.58 0.0 0 0 110.56 15.85
  L 96.52 15.92
  A 0.47 0.47 0.0 0 1 96.14 15.17
  L 100.42 9.45
  Q 100.75 9.00 101.31 9.00
  L 120.98 9.00
  Q 121.47 9.00 121.57 9.49
  Q 122.30 13.33 121.40 14.65
  Q 113.39 26.49 105.37 38.12
  A 0.42 0.42 0.0 0 0 105.72 38.78
  Z"
/>
<path fill="#151515" d="
  M 125.47 9.84
  A 0.90 0.90 0.0 0 1 126.37 8.94
  L 137.41 8.92
  A 18.78 18.29 -0.1 0 1 156.22 27.17
  L 156.22 27.41
  A 18.78 18.29 -0.1 0 1 137.47 45.74
  L 126.43 45.76
  A 0.90 0.90 0.0 0 1 125.53 44.86
  L 125.47 9.84
  Z
  M 133.01 16.81
  L 132.97 37.79
  A 0.59 0.59 0.0 0 0 133.56 38.38
  L 137.28 38.38
  A 11.65 10.94 0.1 0 0 148.95 27.46
  L 148.95 27.18
  A 11.65 10.94 0.1 0 0 137.32 16.22
  L 133.60 16.22
  A 0.59 0.59 0.0 0 0 133.01 16.81
  Z"
/>
<rect fill="#151515" x="-11.90" y="-3.42" transform="translate(171.91,12.43) rotate(-0.3)" width="23.80" height="6.84" rx="0.63"/>
<path fill="#151515" d="
  M 210.77 9.00
  L 217.57 9.01
  A 0.45 0.45 0.0 0 1 217.99 9.62
  L 204.50 45.46
  A 0.45 0.45 0.0 0 1 204.08 45.75
  L 198.83 45.75
  A 0.45 0.45 0.0 0 1 198.41 45.46
  L 184.84 9.64
  A 0.45 0.45 0.0 0 1 185.26 9.03
  L 192.21 8.98
  A 0.45 0.45 0.0 0 1 192.64 9.28
  L 201.03 32.45
  A 0.45 0.45 0.0 0 0 201.87 32.45
  L 210.34 9.30
  A 0.45 0.45 0.0 0 1 210.77 9.00
  Z"
/>
<path fill="#151515" d="
  M 84.33 45.74
  A 0.42 0.42 0.0 0 1 83.91 45.32
  L 84.00 18.52
  A 8.62 0.61 -89.8 0 1 84.64 9.90
  L 90.78 9.92
  A 8.62 0.61 -89.8 0 1 91.36 18.54
  L 91.27 45.34
  A 0.42 0.42 0.0 0 1 90.85 45.76
  L 84.33 45.74
  Z"
/>
<rect fill="#151515" x="160.02" y="23.99" width="23.72" height="6.86" rx="0.50"/>
<rect fill="#151515" x="160.00" y="39.00" width="23.76" height="6.76" rx="0.59"/>
</svg>
